<?xml version="1.0" encoding="utf-8"?>
<!-- Generator: Adobe Illustrator 23.0.3, SVG Export Plug-In . SVG Version: 6.00 Build 0)  -->
<svg version="1.1" id="Layer_1" xmlns="http://www.w3.org/2000/svg" xmlns:xlink="http://www.w3.org/1999/xlink" x="0px" y="0px"
	 viewBox="0 0 150 150" style="enable-background:new 0 0 150 150;" xml:space="preserve">
<style type="text/css">
	.st0{fill:#6D6E71;}
</style>
<g>
	<path class="st0" d="M102.81,25.41l-4.4,4.4l4.4,4.4l4.4-4.4L102.81,25.41z M101.05,29.81l1.76-1.76l1.76,1.76l-1.76,1.76
		L101.05,29.81z M86.88,48.73l3.11-3.11l3.11,3.11l-3.11,3.11L86.88,48.73z M90.08,12.67l-4.41,4.4l4.41,4.4l4.4-4.4L90.08,12.67z
		 M88.31,17.08l1.76-1.76l1.76,1.76l-1.76,1.76L88.31,17.08z M42.72,29.81l4.41,4.4l4.4-4.4l-4.4-4.4L42.72,29.81z M47.12,31.57
		l-1.76-1.76l1.76-1.76l1.76,1.76L47.12,31.57z M55.45,17.08l4.41,4.41l4.4-4.41l-4.4-4.4L55.45,17.08z M59.86,18.84l-1.76-1.76
		l1.76-1.76l1.76,1.76L59.86,18.84z M102.81,37.74v4.4L74.96,14.3L47.12,42.14v-4.4L74.96,9.89L102.81,37.74z M74.96,1.09l-4.4,4.4
		l4.4,4.4l4.41-4.4L74.96,1.09z M73.2,5.49l1.76-1.76l1.76,1.76l-1.76,1.76L73.2,5.49z M74.96,18.84L47.12,46.68v0.9v3.5v9.73v4.41
		v36.59v3.11h3.11h49.46h3.11v-3.11V83.97L92.55,73.71l10.26-10.25V51.08v-4.4L74.96,18.84z M50.23,62.11l11.92-11.92v23.27
		l28.35,28.36H74.27L50.23,77.78V62.11z M65.27,72.17V61.13l11.25-11.25v33.54L65.27,72.17z M50.23,82.18l19.63,19.64H50.23V82.18z
		 M99.69,85.26v16.56h-4.78L79.63,86.53V65.19L99.69,85.26z M99.69,62.17l-9.34,9.34L79.63,60.79V46.77l9.43-9.43l-2.2-2.2
		L65.27,56.72v-9.65l16.76-16.76l-2.2-2.2l-29.6,29.6v-9.73l24.73-24.73l24.73,24.73V62.17z"/>
	<rect x="47.12" y="113.86" class="st0" width="3.18" height="20.06"/>
	<polygon class="st0" points="60.27,133.92 64.37,133.92 55.36,123.94 63.59,113.86 59.5,113.86 51.26,123.94 	"/>
	<polygon class="st0" points="99.69,113.86 99.69,128.99 88.96,113.86 88.66,113.86 86.17,113.86 85.48,113.86 85.48,133.92 
		88.66,133.92 88.66,118.92 99.3,133.92 99.69,133.92 101.64,133.92 102.87,133.92 102.87,113.86 	"/>
	<polygon class="st0" points="68.78,133.92 74.96,121.09 81.15,133.92 84.67,133.92 76.73,117.44 74.96,113.78 73.2,117.44 
		65.26,133.92 	"/>
	<polygon class="st0" points="30.01,133.92 36.19,121.09 42.37,133.92 45.89,133.92 37.95,117.44 36.19,113.78 34.43,117.44 
		26.48,133.92 	"/>
	<polygon class="st0" points="107.56,133.92 113.74,121.09 119.92,133.92 123.44,133.92 115.5,117.44 113.74,113.78 111.98,117.44 
		104.03,133.92 	"/>
	<path class="st0" d="M26.08,143.92v-0.02c0-1.59,1.18-2.9,2.83-2.9c1.02,0,1.63,0.36,2.19,0.89l-0.43,0.46
		c-0.47-0.45-1-0.77-1.76-0.77c-1.24,0-2.17,1.01-2.17,2.3v0.02c0,1.3,0.94,2.32,2.17,2.32c0.77,0,1.27-0.3,1.81-0.81l0.42,0.41
		c-0.59,0.59-1.22,0.99-2.24,0.99C27.27,146.8,26.08,145.53,26.08,143.92"/>
	<polygon class="st0" points="31.92,141.09 35.97,141.09 35.97,141.67 32.55,141.67 32.55,143.59 35.61,143.59 35.61,144.16 
		32.55,144.16 32.55,146.13 36.01,146.13 36.01,146.71 31.92,146.71 	"/>
	<polygon class="st0" points="36.97,141.09 37.56,141.09 41.09,145.59 41.09,141.09 41.71,141.09 41.71,146.71 41.2,146.71 
		37.59,142.1 37.59,146.71 36.97,146.71 	"/>
	<polygon class="st0" points="42.98,141.09 43.57,141.09 47.1,145.59 47.1,141.09 47.72,141.09 47.72,146.71 47.21,146.71 
		43.59,142.1 43.59,146.71 42.98,146.71 	"/>
	<polygon class="st0" points="48.99,141.09 53.04,141.09 53.04,141.67 49.62,141.67 49.62,143.59 52.68,143.59 52.68,144.16 
		49.62,144.16 49.62,146.13 53.08,146.13 53.08,146.71 48.99,146.71 	"/>
	<polygon class="st0" points="55.52,141.68 53.63,141.68 53.63,141.09 58.04,141.09 58.04,141.68 56.16,141.68 56.16,146.71 
		55.52,146.71 	"/>
	<polygon class="st0" points="60.99,141.09 61.62,141.09 61.62,144.45 64.84,141.09 65.66,141.09 63.25,143.55 65.76,146.71 
		64.97,146.71 62.81,143.99 61.62,145.2 61.62,146.71 60.99,146.71 	"/>
	<path class="st0" d="M65.77,143.92v-0.02c0-1.55,1.16-2.9,2.87-2.9c1.7,0,2.85,1.34,2.85,2.89v0.02c0,1.55-1.16,2.9-2.87,2.9
		C66.92,146.8,65.77,145.46,65.77,143.92 M70.83,143.92v-0.02c0-1.28-0.93-2.32-2.21-2.32c-1.28,0-2.19,1.03-2.19,2.3v0.02
		c0,1.28,0.93,2.32,2.21,2.32C69.92,146.22,70.83,145.19,70.83,143.92"/>
	<polygon class="st0" points="73.78,144.49 71.45,141.09 72.22,141.09 74.11,143.9 76.01,141.09 76.75,141.09 74.42,144.48 
		74.42,146.71 73.78,146.71 	"/>
	<path class="st0" d="M77.36,144.36v-3.27h0.63v3.23c0,1.21,0.65,1.89,1.71,1.89c1.03,0,1.69-0.63,1.69-1.85v-3.27h0.63v3.22
		c0,1.64-0.94,2.49-2.34,2.49C78.3,146.8,77.36,145.95,77.36,144.36"/>
	<path class="st0" d="M89.45,141.09h2.39c0.64,0,1.14,0.18,1.47,0.5c0.23,0.24,0.36,0.54,0.36,0.9v0.02c0,0.73-0.45,1.11-0.89,1.3
		c0.66,0.2,1.2,0.59,1.2,1.36v0.02c0,0.96-0.81,1.53-2.03,1.53h-2.49V141.09z M93.02,142.58c0-0.55-0.44-0.91-1.24-0.91h-1.7v1.93
		h1.66c0.76,0,1.29-0.34,1.29-1V142.58z M91.85,144.16h-1.77v1.98h1.88c0.85,0,1.38-0.38,1.38-1v-0.02
		C93.34,144.51,92.82,144.16,91.85,144.16"/>
	<path class="st0" d="M94.67,143.92v-0.02c0-1.55,1.16-2.9,2.87-2.9c1.7,0,2.85,1.34,2.85,2.89v0.02c0,1.55-1.16,2.9-2.87,2.9
		C95.81,146.8,94.67,145.46,94.67,143.92 M99.73,143.92v-0.02c0-1.28-0.93-2.32-2.21-2.32c-1.28,0-2.19,1.03-2.19,2.3v0.02
		c0,1.28,0.93,2.32,2.21,2.32C98.82,146.22,99.73,145.19,99.73,143.92"/>
	<path class="st0" d="M101.4,141.09h1.95c1.76,0,2.98,1.21,2.98,2.79v0.02c0,1.58-1.22,2.81-2.98,2.81h-1.95V141.09z M102.04,141.68
		v4.45h1.31c1.42,0,2.32-0.96,2.32-2.21v-0.02c0-1.24-0.9-2.22-2.32-2.22H102.04z"/>
	<path class="st0" d="M107.35,141.09h2.41c0.69,0,1.24,0.21,1.59,0.56c0.27,0.27,0.43,0.67,0.43,1.11v0.02
		c0,0.93-0.64,1.48-1.52,1.64l1.72,2.29h-0.77l-1.63-2.18h-1.6v2.18h-0.63V141.09z M109.7,143.96c0.84,0,1.44-0.43,1.44-1.16v-0.02
		c0-0.69-0.53-1.11-1.43-1.11h-1.73v2.28H109.7z"/>
	<path class="st0" d="M112.73,144.36v-3.27h0.63v3.23c0,1.21,0.65,1.89,1.71,1.89c1.03,0,1.69-0.63,1.69-1.85v-3.27h0.63v3.22
		c0,1.64-0.94,2.49-2.34,2.49C113.68,146.8,112.73,145.95,112.73,144.36"/>
	<polygon class="st0" points="118.58,141.09 119.22,141.09 121.26,144.16 123.31,141.09 123.95,141.09 123.95,146.71 123.31,146.71 
		123.31,142.16 121.27,145.17 121.24,145.17 119.2,142.17 119.2,146.71 118.58,146.71 	"/>
	<rect x="85.39" y="139.77" class="st0" width="0.53" height="8.63"/>
</g>
</svg>
