<?xml version="1.0" encoding="utf-8"?>
<!-- Generator: Adobe Illustrator 23.0.3, SVG Export Plug-In . SVG Version: 6.00 Build 0)  -->
<svg version="1.1" id="Layer_1" xmlns="http://www.w3.org/2000/svg" xmlns:xlink="http://www.w3.org/1999/xlink" x="0px" y="0px"
	 viewBox="0 0 150 150" style="enable-background:new 0 0 150 150;" xml:space="preserve">
<style type="text/css">
	.st0{fill:#6D6E71;}
</style>
<path class="st0" d="M97.99,26.61l-4.14,4.14l4.14,4.14l4.14-4.14L97.99,26.61z M96.33,30.75l1.66-1.66l1.66,1.66l-1.66,1.66
	L96.33,30.75z M83,48.56l2.93-2.93l2.93,2.93l-2.93,2.93L83,48.56z M86.01,14.63l-4.14,4.14l4.14,4.14l4.14-4.14L86.01,14.63z
	 M84.35,18.77l1.66-1.66l1.66,1.66l-1.66,1.66L84.35,18.77z M41.46,30.75l4.14,4.14l4.14-4.14l-4.14-4.14L41.46,30.75z M45.6,32.41
	l-1.66-1.66l1.66-1.66l1.66,1.66L45.6,32.41z M53.44,18.77l4.14,4.15l4.14-4.15l-4.14-4.14L53.44,18.77z M57.58,20.43l-1.66-1.66
	l1.66-1.66l1.66,1.66L57.58,20.43z M97.99,38.21v4.14l-26.19-26.2l-26.2,26.2v-4.14l26.2-26.2L97.99,38.21z M71.79,3.73l-4.14,4.14
	l4.14,4.14l4.14-4.14L71.79,3.73z M70.14,7.87l1.65-1.66l1.66,1.66l-1.66,1.66L70.14,7.87z M71.79,20.43L45.6,46.63v0.85v3.29v9.16
	v4.14V98.5v2.93h2.93h46.53h2.93V98.5V81.71l-9.65-9.65l9.65-9.64V50.77v-4.14L71.79,20.43z M48.53,61.14l11.21-11.22v21.9
	L86.42,98.5H71.14L48.53,75.88V61.14z M62.67,70.61V60.22l10.58-10.58v31.55L62.67,70.61z M48.53,80.03L67,98.5H48.53V80.03z
	 M95.06,82.92V98.5h-4.5L76.18,84.12V64.05L95.06,82.92z M95.06,61.2l-8.79,8.79L76.18,59.9v-13.2l8.87-8.87l-2.07-2.07L62.67,56.07
	V47l15.77-15.77l-2.07-2.07L48.53,57v-9.16l23.26-23.26l23.27,23.26V61.2z"/>
<polygon class="st0" points="45.6,137.02 47.17,137.02 47.17,140.74 51.44,140.74 51.44,137.02 53.01,137.02 53.01,145.96 
	51.44,145.96 51.44,142.19 47.17,142.19 47.17,145.96 45.6,145.96 "/>
<path class="st0" d="M55.03,141.52v-0.03c0-2.52,1.94-4.62,4.69-4.62c2.75,0,4.66,2.08,4.66,4.6v0.02c0,2.52-1.94,4.63-4.69,4.63
	C56.95,146.11,55.03,144.03,55.03,141.52 M62.74,141.52v-0.03c0-1.74-1.26-3.18-3.04-3.18c-1.78,0-3.02,1.42-3.02,3.16v0.02
	c0,1.74,1.26,3.17,3.04,3.17C61.5,144.66,62.74,143.25,62.74,141.52"/>
<polygon class="st0" points="68.19,138.47 65.36,138.47 65.36,137.02 72.61,137.02 72.61,138.47 69.78,138.47 69.78,145.96 
	68.19,145.96 "/>
<polygon class="st0" points="74.66,137.02 81.29,137.02 81.29,138.42 76.23,138.42 76.23,140.75 80.71,140.75 80.71,142.15 
	76.23,142.15 76.23,144.56 81.35,144.56 81.35,145.96 74.66,145.96 "/>
<polygon class="st0" points="83.4,137.02 84.97,137.02 84.97,144.53 89.67,144.53 89.67,145.96 83.4,145.96 "/>
<path class="st0" d="M91.19,144.66l0.95-1.12c0.86,0.74,1.72,1.16,2.82,1.16c0.97,0,1.58-0.46,1.58-1.12v-0.03
	c0-0.64-0.36-0.98-2.02-1.37c-1.9-0.46-2.98-1.02-2.98-2.67v-0.03c0-1.53,1.28-2.59,3.05-2.59c1.3,0,2.34,0.4,3.24,1.12L97,139.2
	c-0.8-0.6-1.61-0.92-2.43-0.92c-0.92,0-1.46,0.47-1.46,1.06v0.03c0,0.69,0.41,1,2.13,1.41c1.89,0.46,2.86,1.14,2.86,2.62v0.02
	c0,1.67-1.31,2.67-3.19,2.67C93.55,146.09,92.26,145.62,91.19,144.66"/>
<rect x="45.6" y="109.83" class="st0" width="2.99" height="18.87"/>
<polygon class="st0" points="57.97,128.7 61.82,128.7 53.36,119.31 61.1,109.83 57.24,109.83 49.5,119.31 "/>
<polygon class="st0" points="95.06,109.83 95.06,124.07 84.96,109.83 84.68,109.83 82.33,109.83 81.69,109.83 81.69,128.7 
	84.68,128.7 84.68,114.59 94.69,128.7 95.06,128.7 96.89,128.7 98.05,128.7 98.05,109.83 "/>
<polygon class="st0" points="65.98,128.7 71.79,116.64 77.61,128.7 80.92,128.7 73.45,113.2 71.79,109.76 70.14,113.2 62.66,128.7 
	"/>
<polygon class="st0" points="29.5,128.7 35.32,116.64 41.13,128.7 44.45,128.7 36.97,113.2 35.32,109.76 33.66,113.2 26.19,128.7 
	"/>
<polygon class="st0" points="102.46,128.7 108.27,116.64 114.09,128.7 117.4,128.7 109.93,113.2 108.27,109.76 106.61,113.2 
	99.14,128.7 "/>
</svg>
